<svg width="22" height="22" viewBox="0 0 22 22" fill="none" xmlns="http://www.w3.org/2000/svg">
<path d="M10.1017 17.875H6.87501C6.30667 17.875 5.80251 17.8567 5.35334 17.7925C2.94251 17.5267 2.29167 16.39 2.29167 13.2917V8.70833C2.29167 5.61 2.94251 4.47333 5.35334 4.2075C5.80251 4.14333 6.30667 4.125 6.87501 4.125H10.0467" stroke="#A8AEB7" stroke-width="1.5" stroke-linecap="round" stroke-linejoin="round"/>
<path d="M13.7683 4.125H15.125C15.6933 4.125 16.1975 4.14333 16.6467 4.2075C19.0575 4.47333 19.7083 5.61 19.7083 8.70833V13.2917C19.7083 16.39 19.0575 17.5267 16.6467 17.7925C16.1975 17.8567 15.6933 17.875 15.125 17.875H13.7683" stroke="#A8AEB7" stroke-width="1.5" stroke-linecap="round" stroke-linejoin="round"/>
<path d="M13.75 1.83333V20.1667" stroke="#A8AEB7" stroke-width="1.5" stroke-linecap="round" stroke-linejoin="round"/>
<path d="M10.1699 11H10.1782" stroke="#A8AEB7" stroke-width="2" stroke-linecap="round" stroke-linejoin="round"/>
<path d="M6.50327 11H6.5115" stroke="#A8AEB7" stroke-width="2" stroke-linecap="round" stroke-linejoin="round"/>
</svg>
