<svg width="64" height="64" viewBox="0 0 64 64" fill="none" xmlns="http://www.w3.org/2000/svg">
<g clip-path="url(#clip0_23105_6216)">
<path d="M16.4081 57.9024L1.98389 32.6247C1.70915 32.208 1.70915 31.6525 1.98389 31.2358L16.4081 6.02745C16.6829 5.61079 17.095 5.33301 17.5758 5.33301H46.4243C46.9051 5.33301 47.3859 5.61079 47.592 6.02745L62.0162 31.3052C62.291 31.7219 62.291 32.2775 62.0162 32.6941L47.592 57.9719C47.3172 58.3886 46.9051 58.6663 46.4243 58.6663H17.5758C17.095 58.5969 16.6142 58.3886 16.4081 57.9024Z" fill="#E8E8E8"/>
<path d="M19.9111 53.1109L7.89087 31.9998L19.9111 10.8887H44.0888L56.109 31.9998L44.0888 53.1109H19.9111Z" fill="black"/>
<path d="M38.7313 27.3468C38.7313 28.1802 38.5939 28.9441 38.3192 29.6385C38.0444 30.333 37.6323 31.0274 37.1515 31.583C36.6707 32.1385 36.0525 32.6246 35.3656 32.9718C34.6788 33.3191 33.9232 33.5968 33.1676 33.6663L33.0303 36.583H29.8707L29.7333 30.5413H31.4505C31.8626 30.5413 32.3434 30.4718 32.6868 30.333C33.099 30.1941 33.4424 29.9857 33.7171 29.708C33.9919 29.4302 34.1979 29.1524 34.404 28.7357C34.6101 28.3885 34.6788 27.9718 34.6788 27.5552C34.6788 26.6524 34.3353 25.8885 33.7171 25.2635C33.099 24.708 32.3434 24.3607 31.3818 24.3607C30.5575 24.3607 29.802 24.5691 29.1838 24.9163C28.5656 25.2635 27.9474 25.7496 27.5353 26.3746L24.5818 24.2218C25.406 23.1802 26.3676 22.3468 27.4666 21.6524C28.5656 21.0274 29.9394 20.6802 31.5192 20.6802C32.5495 20.6802 33.5111 20.8191 34.3353 21.1663C35.2282 21.5135 35.9838 21.9996 36.602 22.5552C37.2202 23.1107 37.7697 23.8052 38.1131 24.6385C38.5252 25.5413 38.7313 26.4441 38.7313 27.3468ZM31.4505 38.5274C32.0687 38.5274 32.6181 38.7357 33.0303 39.1524C33.4424 39.5691 33.6485 40.1246 33.6485 40.7496C33.6485 41.3746 33.4424 41.9302 33.0303 42.3469C32.6181 42.7635 32.0687 42.9719 31.4505 42.9719C30.8323 42.9719 30.2828 42.7635 29.8707 42.3469C29.4586 41.9302 29.1838 41.3746 29.1838 40.7496C29.1838 40.1246 29.3899 39.5691 29.8707 39.1524C30.2828 38.7357 30.8323 38.5274 31.4505 38.5274Z" fill="white"/>
</g>
<defs>
<clipPath id="clip0_23105_6216">
<rect width="64" height="64" fill="white"/>
</clipPath>
</defs>
</svg>
